<?xml version="1.0" encoding="utf-8" standalone="no"?>
<!DOCTYPE svg PUBLIC "-//W3C//DTD SVG 1.1//EN"
  "http://www.w3.org/Graphics/SVG/1.1/DTD/svg11.dtd">
<svg xmlns:xlink="http://www.w3.org/1999/xlink" width="707.398906pt" height="275.329688pt" viewBox="0 0 707.398906 275.329688" xmlns="http://www.w3.org/2000/svg" version="1.1">
 <metadata>
  <rdf:RDF xmlns:dc="http://purl.org/dc/elements/1.1/" xmlns:cc="http://creativecommons.org/ns#" xmlns:rdf="http://www.w3.org/1999/02/22-rdf-syntax-ns#">
   <cc:Work>
    <dc:type rdf:resource="http://purl.org/dc/dcmitype/StillImage"/>
    <dc:date>2026-05-18T14:29:03.079483</dc:date>
    <dc:format>image/svg+xml</dc:format>
    <dc:creator>
     <cc:Agent>
      <dc:title>Matplotlib v3.10.3, https://matplotlib.org/</dc:title>
     </cc:Agent>
    </dc:creator>
   </cc:Work>
  </rdf:RDF>
 </metadata>
 <defs>
  <style type="text/css">*{stroke-linejoin: round; stroke-linecap: butt}</style>
 </defs>
 <g id="figure_1">
  <g id="patch_1">
   <path d="M 0 275.329688 
L 707.398906 275.329688 
L 707.398906 0 
L 0 0 
z
" style="fill: #ffffff"/>
  </g>
  <g id="axes_1">
   <g id="patch_2">
    <path d="M 47.878906 232.680938 
L 346.678906 232.680938 
L 346.678906 29.220937 
L 47.878906 29.220937 
z
" style="fill: #ffffff"/>
   </g>
   <g id="matplotlib.axis_1">
    <g id="xtick_1">
     <g id="line2d_1">
      <defs>
       <path id="mfe5f540e3b" d="M 0 0 
L 0 6 
" style="stroke: #262626; stroke-width: 1.25"/>
      </defs>
      <g>
       <use xlink:href="#mfe5f540e3b" x="61.460724" y="232.680938" style="fill: #262626; stroke: #262626; stroke-width: 1.25"/>
      </g>
     </g>
     <g id="text_1">
      <!-- 0 -->
      <g style="fill: #262626" transform="translate(58.402209 250.054531) scale(0.11 -0.11)">
       <defs>
        <path id="ArialMT-30" d="M 266 2259 
Q 266 3072 433 3567 
Q 600 4063 929 4331 
Q 1259 4600 1759 4600 
Q 2128 4600 2406 4451 
Q 2684 4303 2865 4023 
Q 3047 3744 3150 3342 
Q 3253 2941 3253 2259 
Q 3253 1453 3087 958 
Q 2922 463 2592 192 
Q 2263 -78 1759 -78 
Q 1097 -78 719 397 
Q 266 969 266 2259 
z
M 844 2259 
Q 844 1131 1108 757 
Q 1372 384 1759 384 
Q 2147 384 2411 759 
Q 2675 1134 2675 2259 
Q 2675 3391 2411 3762 
Q 2147 4134 1753 4134 
Q 1366 4134 1134 3806 
Q 844 3388 844 2259 
z
" transform="scale(0.015625)"/>
       </defs>
       <use xlink:href="#ArialMT-30"/>
      </g>
     </g>
    </g>
    <g id="xtick_2">
     <g id="line2d_2">
      <g>
       <use xlink:href="#mfe5f540e3b" x="106.359297" y="232.680938" style="fill: #262626; stroke: #262626; stroke-width: 1.25"/>
      </g>
     </g>
     <g id="text_2">
      <!-- 20 -->
      <g style="fill: #262626" transform="translate(100.242266 250.054531) scale(0.11 -0.11)">
       <defs>
        <path id="ArialMT-32" d="M 3222 541 
L 3222 0 
L 194 0 
Q 188 203 259 391 
Q 375 700 629 1000 
Q 884 1300 1366 1694 
Q 2113 2306 2375 2664 
Q 2638 3022 2638 3341 
Q 2638 3675 2398 3904 
Q 2159 4134 1775 4134 
Q 1369 4134 1125 3890 
Q 881 3647 878 3216 
L 300 3275 
Q 359 3922 746 4261 
Q 1134 4600 1788 4600 
Q 2447 4600 2831 4234 
Q 3216 3869 3216 3328 
Q 3216 3053 3103 2787 
Q 2991 2522 2730 2228 
Q 2469 1934 1863 1422 
Q 1356 997 1212 845 
Q 1069 694 975 541 
L 3222 541 
z
" transform="scale(0.015625)"/>
       </defs>
       <use xlink:href="#ArialMT-32"/>
       <use xlink:href="#ArialMT-30" transform="translate(55.615234 0)"/>
      </g>
     </g>
    </g>
    <g id="xtick_3">
     <g id="line2d_3">
      <g>
       <use xlink:href="#mfe5f540e3b" x="151.257869" y="232.680938" style="fill: #262626; stroke: #262626; stroke-width: 1.25"/>
      </g>
     </g>
     <g id="text_3">
      <!-- 40 -->
      <g style="fill: #262626" transform="translate(145.140838 250.054531) scale(0.11 -0.11)">
       <defs>
        <path id="ArialMT-34" d="M 2069 0 
L 2069 1097 
L 81 1097 
L 81 1613 
L 2172 4581 
L 2631 4581 
L 2631 1613 
L 3250 1613 
L 3250 1097 
L 2631 1097 
L 2631 0 
L 2069 0 
z
M 2069 1613 
L 2069 3678 
L 634 1613 
L 2069 1613 
z
" transform="scale(0.015625)"/>
       </defs>
       <use xlink:href="#ArialMT-34"/>
       <use xlink:href="#ArialMT-30" transform="translate(55.615234 0)"/>
      </g>
     </g>
    </g>
    <g id="xtick_4">
     <g id="line2d_4">
      <g>
       <use xlink:href="#mfe5f540e3b" x="196.156442" y="232.680938" style="fill: #262626; stroke: #262626; stroke-width: 1.25"/>
      </g>
     </g>
     <g id="text_4">
      <!-- 60 -->
      <g style="fill: #262626" transform="translate(190.039411 250.054531) scale(0.11 -0.11)">
       <defs>
        <path id="ArialMT-36" d="M 3184 3459 
L 2625 3416 
Q 2550 3747 2413 3897 
Q 2184 4138 1850 4138 
Q 1581 4138 1378 3988 
Q 1113 3794 959 3422 
Q 806 3050 800 2363 
Q 1003 2672 1297 2822 
Q 1591 2972 1913 2972 
Q 2475 2972 2870 2558 
Q 3266 2144 3266 1488 
Q 3266 1056 3080 686 
Q 2894 316 2569 119 
Q 2244 -78 1831 -78 
Q 1128 -78 684 439 
Q 241 956 241 2144 
Q 241 3472 731 4075 
Q 1159 4600 1884 4600 
Q 2425 4600 2770 4297 
Q 3116 3994 3184 3459 
z
M 888 1484 
Q 888 1194 1011 928 
Q 1134 663 1356 523 
Q 1578 384 1822 384 
Q 2178 384 2434 671 
Q 2691 959 2691 1453 
Q 2691 1928 2437 2201 
Q 2184 2475 1800 2475 
Q 1419 2475 1153 2201 
Q 888 1928 888 1484 
z
" transform="scale(0.015625)"/>
       </defs>
       <use xlink:href="#ArialMT-36"/>
       <use xlink:href="#ArialMT-30" transform="translate(55.615234 0)"/>
      </g>
     </g>
    </g>
    <g id="xtick_5">
     <g id="line2d_5">
      <g>
       <use xlink:href="#mfe5f540e3b" x="241.055014" y="232.680938" style="fill: #262626; stroke: #262626; stroke-width: 1.25"/>
      </g>
     </g>
     <g id="text_5">
      <!-- 80 -->
      <g style="fill: #262626" transform="translate(234.937983 250.054531) scale(0.11 -0.11)">
       <defs>
        <path id="ArialMT-38" d="M 1131 2484 
Q 781 2613 612 2850 
Q 444 3088 444 3419 
Q 444 3919 803 4259 
Q 1163 4600 1759 4600 
Q 2359 4600 2725 4251 
Q 3091 3903 3091 3403 
Q 3091 3084 2923 2848 
Q 2756 2613 2416 2484 
Q 2838 2347 3058 2040 
Q 3278 1734 3278 1309 
Q 3278 722 2862 322 
Q 2447 -78 1769 -78 
Q 1091 -78 675 323 
Q 259 725 259 1325 
Q 259 1772 486 2073 
Q 713 2375 1131 2484 
z
M 1019 3438 
Q 1019 3113 1228 2906 
Q 1438 2700 1772 2700 
Q 2097 2700 2305 2904 
Q 2513 3109 2513 3406 
Q 2513 3716 2298 3927 
Q 2084 4138 1766 4138 
Q 1444 4138 1231 3931 
Q 1019 3725 1019 3438 
z
M 838 1322 
Q 838 1081 952 856 
Q 1066 631 1291 507 
Q 1516 384 1775 384 
Q 2178 384 2440 643 
Q 2703 903 2703 1303 
Q 2703 1709 2433 1975 
Q 2163 2241 1756 2241 
Q 1359 2241 1098 1978 
Q 838 1716 838 1322 
z
" transform="scale(0.015625)"/>
       </defs>
       <use xlink:href="#ArialMT-38"/>
       <use xlink:href="#ArialMT-30" transform="translate(55.615234 0)"/>
      </g>
     </g>
    </g>
    <g id="xtick_6">
     <g id="line2d_6">
      <g>
       <use xlink:href="#mfe5f540e3b" x="285.953587" y="232.680938" style="fill: #262626; stroke: #262626; stroke-width: 1.25"/>
      </g>
     </g>
     <g id="text_6">
      <!-- 100 -->
      <g style="fill: #262626" transform="translate(276.77804 250.054531) scale(0.11 -0.11)">
       <defs>
        <path id="ArialMT-31" d="M 2384 0 
L 1822 0 
L 1822 3584 
Q 1619 3391 1289 3197 
Q 959 3003 697 2906 
L 697 3450 
Q 1169 3672 1522 3987 
Q 1875 4303 2022 4600 
L 2384 4600 
L 2384 0 
z
" transform="scale(0.015625)"/>
       </defs>
       <use xlink:href="#ArialMT-31"/>
       <use xlink:href="#ArialMT-30" transform="translate(55.615234 0)"/>
       <use xlink:href="#ArialMT-30" transform="translate(111.230469 0)"/>
      </g>
     </g>
    </g>
    <g id="xtick_7">
     <g id="line2d_7">
      <g>
       <use xlink:href="#mfe5f540e3b" x="330.852159" y="232.680938" style="fill: #262626; stroke: #262626; stroke-width: 1.25"/>
      </g>
     </g>
     <g id="text_7">
      <!-- 120 -->
      <g style="fill: #262626" transform="translate(321.676613 250.054531) scale(0.11 -0.11)">
       <use xlink:href="#ArialMT-31"/>
       <use xlink:href="#ArialMT-32" transform="translate(55.615234 0)"/>
       <use xlink:href="#ArialMT-30" transform="translate(111.230469 0)"/>
      </g>
     </g>
    </g>
    <g id="text_8">
     <!-- Epoch -->
     <g style="fill: #262626" transform="translate(178.849375 265.545938) scale(0.13 -0.13)">
      <defs>
       <path id="ArialMT-45" d="M 506 0 
L 506 4581 
L 3819 4581 
L 3819 4041 
L 1113 4041 
L 1113 2638 
L 3647 2638 
L 3647 2100 
L 1113 2100 
L 1113 541 
L 3925 541 
L 3925 0 
L 506 0 
z
" transform="scale(0.015625)"/>
       <path id="ArialMT-70" d="M 422 -1272 
L 422 3319 
L 934 3319 
L 934 2888 
Q 1116 3141 1344 3267 
Q 1572 3394 1897 3394 
Q 2322 3394 2647 3175 
Q 2972 2956 3137 2557 
Q 3303 2159 3303 1684 
Q 3303 1175 3120 767 
Q 2938 359 2589 142 
Q 2241 -75 1856 -75 
Q 1575 -75 1351 44 
Q 1128 163 984 344 
L 984 -1272 
L 422 -1272 
z
M 931 1641 
Q 931 1000 1190 694 
Q 1450 388 1819 388 
Q 2194 388 2461 705 
Q 2728 1022 2728 1688 
Q 2728 2322 2467 2637 
Q 2206 2953 1844 2953 
Q 1484 2953 1207 2617 
Q 931 2281 931 1641 
z
" transform="scale(0.015625)"/>
       <path id="ArialMT-6f" d="M 213 1659 
Q 213 2581 725 3025 
Q 1153 3394 1769 3394 
Q 2453 3394 2887 2945 
Q 3322 2497 3322 1706 
Q 3322 1066 3130 698 
Q 2938 331 2570 128 
Q 2203 -75 1769 -75 
Q 1072 -75 642 372 
Q 213 819 213 1659 
z
M 791 1659 
Q 791 1022 1069 705 
Q 1347 388 1769 388 
Q 2188 388 2466 706 
Q 2744 1025 2744 1678 
Q 2744 2294 2464 2611 
Q 2184 2928 1769 2928 
Q 1347 2928 1069 2612 
Q 791 2297 791 1659 
z
" transform="scale(0.015625)"/>
       <path id="ArialMT-63" d="M 2588 1216 
L 3141 1144 
Q 3050 572 2676 248 
Q 2303 -75 1759 -75 
Q 1078 -75 664 370 
Q 250 816 250 1647 
Q 250 2184 428 2587 
Q 606 2991 970 3192 
Q 1334 3394 1763 3394 
Q 2303 3394 2647 3120 
Q 2991 2847 3088 2344 
L 2541 2259 
Q 2463 2594 2264 2762 
Q 2066 2931 1784 2931 
Q 1359 2931 1093 2626 
Q 828 2322 828 1663 
Q 828 994 1084 691 
Q 1341 388 1753 388 
Q 2084 388 2306 591 
Q 2528 794 2588 1216 
z
" transform="scale(0.015625)"/>
       <path id="ArialMT-68" d="M 422 0 
L 422 4581 
L 984 4581 
L 984 2938 
Q 1378 3394 1978 3394 
Q 2347 3394 2619 3248 
Q 2891 3103 3008 2847 
Q 3125 2591 3125 2103 
L 3125 0 
L 2563 0 
L 2563 2103 
Q 2563 2525 2380 2717 
Q 2197 2909 1863 2909 
Q 1613 2909 1392 2779 
Q 1172 2650 1078 2428 
Q 984 2206 984 1816 
L 984 0 
L 422 0 
z
" transform="scale(0.015625)"/>
      </defs>
      <use xlink:href="#ArialMT-45"/>
      <use xlink:href="#ArialMT-70" transform="translate(66.699219 0)"/>
      <use xlink:href="#ArialMT-6f" transform="translate(122.314453 0)"/>
      <use xlink:href="#ArialMT-63" transform="translate(177.929688 0)"/>
      <use xlink:href="#ArialMT-68" transform="translate(227.929688 0)"/>
     </g>
    </g>
   </g>
   <g id="matplotlib.axis_2">
    <g id="ytick_1">
     <g id="line2d_8">
      <defs>
       <path id="m292e84e9fc" d="M 0 0 
L -6 0 
" style="stroke: #262626; stroke-width: 1.25"/>
      </defs>
      <g>
       <use xlink:href="#m292e84e9fc" x="47.878906" y="231.980908" style="fill: #262626; stroke: #262626; stroke-width: 1.25"/>
      </g>
     </g>
     <g id="text_9">
      <!-- 0.3 -->
      <g style="fill: #262626" transform="translate(23.088906 235.917705) scale(0.11 -0.11)">
       <defs>
        <path id="ArialMT-2e" d="M 581 0 
L 581 641 
L 1222 641 
L 1222 0 
L 581 0 
z
" transform="scale(0.015625)"/>
        <path id="ArialMT-33" d="M 269 1209 
L 831 1284 
Q 928 806 1161 595 
Q 1394 384 1728 384 
Q 2125 384 2398 659 
Q 2672 934 2672 1341 
Q 2672 1728 2419 1979 
Q 2166 2231 1775 2231 
Q 1616 2231 1378 2169 
L 1441 2663 
Q 1497 2656 1531 2656 
Q 1891 2656 2178 2843 
Q 2466 3031 2466 3422 
Q 2466 3731 2256 3934 
Q 2047 4138 1716 4138 
Q 1388 4138 1169 3931 
Q 950 3725 888 3313 
L 325 3413 
Q 428 3978 793 4289 
Q 1159 4600 1703 4600 
Q 2078 4600 2393 4439 
Q 2709 4278 2876 4000 
Q 3044 3722 3044 3409 
Q 3044 3113 2884 2869 
Q 2725 2625 2413 2481 
Q 2819 2388 3044 2092 
Q 3269 1797 3269 1353 
Q 3269 753 2831 336 
Q 2394 -81 1725 -81 
Q 1122 -81 723 278 
Q 325 638 269 1209 
z
" transform="scale(0.015625)"/>
       </defs>
       <use xlink:href="#ArialMT-30"/>
       <use xlink:href="#ArialMT-2e" transform="translate(55.615234 0)"/>
       <use xlink:href="#ArialMT-33" transform="translate(83.398438 0)"/>
      </g>
     </g>
    </g>
    <g id="ytick_2">
     <g id="line2d_9">
      <g>
       <use xlink:href="#m292e84e9fc" x="47.878906" y="202.432806" style="fill: #262626; stroke: #262626; stroke-width: 1.25"/>
      </g>
     </g>
     <g id="text_10">
      <!-- 0.4 -->
      <g style="fill: #262626" transform="translate(23.088906 206.369603) scale(0.11 -0.11)">
       <use xlink:href="#ArialMT-30"/>
       <use xlink:href="#ArialMT-2e" transform="translate(55.615234 0)"/>
       <use xlink:href="#ArialMT-34" transform="translate(83.398438 0)"/>
      </g>
     </g>
    </g>
    <g id="ytick_3">
     <g id="line2d_10">
      <g>
       <use xlink:href="#m292e84e9fc" x="47.878906" y="172.884705" style="fill: #262626; stroke: #262626; stroke-width: 1.25"/>
      </g>
     </g>
     <g id="text_11">
      <!-- 0.5 -->
      <g style="fill: #262626" transform="translate(23.088906 176.821501) scale(0.11 -0.11)">
       <defs>
        <path id="ArialMT-35" d="M 266 1200 
L 856 1250 
Q 922 819 1161 601 
Q 1400 384 1738 384 
Q 2144 384 2425 690 
Q 2706 997 2706 1503 
Q 2706 1984 2436 2262 
Q 2166 2541 1728 2541 
Q 1456 2541 1237 2417 
Q 1019 2294 894 2097 
L 366 2166 
L 809 4519 
L 3088 4519 
L 3088 3981 
L 1259 3981 
L 1013 2750 
Q 1425 3038 1878 3038 
Q 2478 3038 2890 2622 
Q 3303 2206 3303 1553 
Q 3303 931 2941 478 
Q 2500 -78 1738 -78 
Q 1113 -78 717 272 
Q 322 622 266 1200 
z
" transform="scale(0.015625)"/>
       </defs>
       <use xlink:href="#ArialMT-30"/>
       <use xlink:href="#ArialMT-2e" transform="translate(55.615234 0)"/>
       <use xlink:href="#ArialMT-35" transform="translate(83.398438 0)"/>
      </g>
     </g>
    </g>
    <g id="ytick_4">
     <g id="line2d_11">
      <g>
       <use xlink:href="#m292e84e9fc" x="47.878906" y="143.336603" style="fill: #262626; stroke: #262626; stroke-width: 1.25"/>
      </g>
     </g>
     <g id="text_12">
      <!-- 0.6 -->
      <g style="fill: #262626" transform="translate(23.088906 147.2734) scale(0.11 -0.11)">
       <use xlink:href="#ArialMT-30"/>
       <use xlink:href="#ArialMT-2e" transform="translate(55.615234 0)"/>
       <use xlink:href="#ArialMT-36" transform="translate(83.398438 0)"/>
      </g>
     </g>
    </g>
    <g id="ytick_5">
     <g id="line2d_12">
      <g>
       <use xlink:href="#m292e84e9fc" x="47.878906" y="113.788501" style="fill: #262626; stroke: #262626; stroke-width: 1.25"/>
      </g>
     </g>
     <g id="text_13">
      <!-- 0.7 -->
      <g style="fill: #262626" transform="translate(23.088906 117.725298) scale(0.11 -0.11)">
       <defs>
        <path id="ArialMT-37" d="M 303 3981 
L 303 4522 
L 3269 4522 
L 3269 4084 
Q 2831 3619 2401 2847 
Q 1972 2075 1738 1259 
Q 1569 684 1522 0 
L 944 0 
Q 953 541 1156 1306 
Q 1359 2072 1739 2783 
Q 2119 3494 2547 3981 
L 303 3981 
z
" transform="scale(0.015625)"/>
       </defs>
       <use xlink:href="#ArialMT-30"/>
       <use xlink:href="#ArialMT-2e" transform="translate(55.615234 0)"/>
       <use xlink:href="#ArialMT-37" transform="translate(83.398438 0)"/>
      </g>
     </g>
    </g>
    <g id="ytick_6">
     <g id="line2d_13">
      <g>
       <use xlink:href="#m292e84e9fc" x="47.878906" y="84.2404" style="fill: #262626; stroke: #262626; stroke-width: 1.25"/>
      </g>
     </g>
     <g id="text_14">
      <!-- 0.8 -->
      <g style="fill: #262626" transform="translate(23.088906 88.177196) scale(0.11 -0.11)">
       <use xlink:href="#ArialMT-30"/>
       <use xlink:href="#ArialMT-2e" transform="translate(55.615234 0)"/>
       <use xlink:href="#ArialMT-38" transform="translate(83.398438 0)"/>
      </g>
     </g>
    </g>
    <g id="ytick_7">
     <g id="line2d_14">
      <g>
       <use xlink:href="#m292e84e9fc" x="47.878906" y="54.692298" style="fill: #262626; stroke: #262626; stroke-width: 1.25"/>
      </g>
     </g>
     <g id="text_15">
      <!-- 0.9 -->
      <g style="fill: #262626" transform="translate(23.088906 58.629095) scale(0.11 -0.11)">
       <defs>
        <path id="ArialMT-39" d="M 350 1059 
L 891 1109 
Q 959 728 1153 556 
Q 1347 384 1650 384 
Q 1909 384 2104 503 
Q 2300 622 2425 820 
Q 2550 1019 2634 1356 
Q 2719 1694 2719 2044 
Q 2719 2081 2716 2156 
Q 2547 1888 2255 1720 
Q 1963 1553 1622 1553 
Q 1053 1553 659 1965 
Q 266 2378 266 3053 
Q 266 3750 677 4175 
Q 1088 4600 1706 4600 
Q 2153 4600 2523 4359 
Q 2894 4119 3086 3673 
Q 3278 3228 3278 2384 
Q 3278 1506 3087 986 
Q 2897 466 2520 194 
Q 2144 -78 1638 -78 
Q 1100 -78 759 220 
Q 419 519 350 1059 
z
M 2653 3081 
Q 2653 3566 2395 3850 
Q 2138 4134 1775 4134 
Q 1400 4134 1122 3828 
Q 844 3522 844 3034 
Q 844 2597 1108 2323 
Q 1372 2050 1759 2050 
Q 2150 2050 2401 2323 
Q 2653 2597 2653 3081 
z
" transform="scale(0.015625)"/>
       </defs>
       <use xlink:href="#ArialMT-30"/>
       <use xlink:href="#ArialMT-2e" transform="translate(55.615234 0)"/>
       <use xlink:href="#ArialMT-39" transform="translate(83.398438 0)"/>
      </g>
     </g>
    </g>
    <g id="text_16">
     <!-- Loss -->
     <g style="fill: #262626" transform="translate(16.505156 144.680156) rotate(-90) scale(0.13 -0.13)">
      <defs>
       <path id="ArialMT-4c" d="M 469 0 
L 469 4581 
L 1075 4581 
L 1075 541 
L 3331 541 
L 3331 0 
L 469 0 
z
" transform="scale(0.015625)"/>
       <path id="ArialMT-73" d="M 197 991 
L 753 1078 
Q 800 744 1014 566 
Q 1228 388 1613 388 
Q 2000 388 2187 545 
Q 2375 703 2375 916 
Q 2375 1106 2209 1216 
Q 2094 1291 1634 1406 
Q 1016 1563 777 1677 
Q 538 1791 414 1992 
Q 291 2194 291 2438 
Q 291 2659 392 2848 
Q 494 3038 669 3163 
Q 800 3259 1026 3326 
Q 1253 3394 1513 3394 
Q 1903 3394 2198 3281 
Q 2494 3169 2634 2976 
Q 2775 2784 2828 2463 
L 2278 2388 
Q 2241 2644 2061 2787 
Q 1881 2931 1553 2931 
Q 1166 2931 1000 2803 
Q 834 2675 834 2503 
Q 834 2394 903 2306 
Q 972 2216 1119 2156 
Q 1203 2125 1616 2013 
Q 2213 1853 2448 1751 
Q 2684 1650 2818 1456 
Q 2953 1263 2953 975 
Q 2953 694 2789 445 
Q 2625 197 2315 61 
Q 2006 -75 1616 -75 
Q 969 -75 630 194 
Q 291 463 197 991 
z
" transform="scale(0.015625)"/>
      </defs>
      <use xlink:href="#ArialMT-4c"/>
      <use xlink:href="#ArialMT-6f" transform="translate(55.615234 0)"/>
      <use xlink:href="#ArialMT-73" transform="translate(111.230469 0)"/>
      <use xlink:href="#ArialMT-73" transform="translate(161.230469 0)"/>
     </g>
    </g>
   </g>
   <g id="line2d_15">
    <path d="M 61.460724 38.469119 
L 63.705653 50.241551 
L 65.950582 58.940368 
L 68.19551 84.926805 
L 70.440439 93.211784 
L 72.685368 100.778232 
L 74.930296 107.469775 
L 77.175225 113.281676 
L 79.420153 118.128465 
L 81.665082 121.984612 
L 83.910011 125.772404 
L 86.154939 128.874945 
L 88.399868 131.600291 
L 90.644797 134.22754 
L 92.889725 137.005813 
L 95.134654 139.38925 
L 97.379582 141.691268 
L 99.624511 144.025974 
L 101.86944 146.064153 
L 104.114368 148.231287 
L 106.359297 150.267563 
L 108.604226 152.05242 
L 110.849154 154.147339 
L 113.094083 156.17237 
L 115.339011 157.869549 
L 117.58394 159.740316 
L 119.828869 161.919862 
L 122.073797 163.752895 
L 124.318726 165.4749 
L 126.563655 167.164615 
L 128.808583 168.534333 
L 131.053512 169.88736 
L 133.29844 170.957057 
L 135.543369 172.443515 
L 137.788298 173.740425 
L 140.033226 175.312484 
L 142.278155 176.560167 
L 144.523084 178.110816 
L 146.768012 179.318067 
L 149.012941 180.516148 
L 151.257869 181.583747 
L 153.502798 182.750199 
L 155.747727 183.927409 
L 157.992655 184.956109 
L 160.237584 186.01377 
L 162.482513 187.022402 
L 164.727441 188.068193 
L 166.97237 188.99865 
L 169.217298 190.0245 
L 171.462227 190.822866 
L 173.707156 191.763452 
L 175.952084 192.725819 
L 178.197013 193.459757 
L 180.441942 194.409167 
L 182.68687 195.445541 
L 184.931799 196.356142 
L 187.176727 197.245044 
L 189.421656 198.058367 
L 191.666585 198.673461 
L 193.911513 199.303838 
L 196.156442 199.939819 
L 198.401371 200.615886 
L 200.646299 201.309859 
L 202.891228 202.112744 
L 205.136156 202.934504 
L 207.381085 203.61604 
L 209.626014 203.87531 
L 211.870942 204.563508 
L 214.115871 205.037907 
L 216.3608 205.581068 
L 218.605728 206.223433 
L 220.850657 207.124357 
L 223.095585 207.663743 
L 225.340514 208.245409 
L 227.585443 208.775855 
L 229.830371 209.156867 
L 232.0753 209.44567 
L 234.320229 209.705241 
L 236.565157 210.248884 
L 238.810086 210.672549 
L 241.055014 211.178083 
L 243.299943 211.769343 
L 245.544872 212.346461 
L 247.7898 212.726237 
L 250.034729 213.019253 
L 252.279658 213.291186 
L 254.524586 213.742764 
L 256.769515 214.183064 
L 259.014443 214.525186 
L 261.259372 214.839877 
L 263.504301 215.438757 
L 265.749229 215.756325 
L 267.994158 216.058321 
L 270.239087 216.410233 
L 272.484015 216.956057 
L 274.728944 217.157871 
L 276.973872 217.415637 
L 279.218801 217.783071 
L 281.46373 218.116879 
L 283.708658 218.403397 
L 285.953587 218.57007 
L 288.198516 218.798745 
L 290.443444 219.034225 
L 292.688373 219.246588 
L 294.933301 219.523957 
L 297.17823 219.707572 
L 299.423159 220.056181 
L 301.668087 220.223301 
L 303.913016 220.504465 
L 306.157945 220.758579 
L 308.402873 221.135936 
L 310.647802 221.260243 
L 312.89273 221.615461 
L 315.137659 221.917825 
L 317.382588 222.137468 
L 319.627516 222.345667 
L 321.872445 222.685896 
L 324.117374 222.834492 
L 326.362302 223.02046 
L 328.607231 223.190237 
L 330.852159 223.351503 
L 333.097088 223.432756 
" clip-path="url(#pe6e21ef4f6)" style="fill: none; stroke: #531b93; stroke-width: 2; stroke-linecap: round"/>
   </g>
   <g id="line2d_16">
    <path d="M 61.460724 69.311405 
L 63.705653 71.751122 
L 65.950582 74.836826 
L 68.19551 81.057773 
L 70.440439 87.445542 
L 72.685368 93.935115 
L 74.930296 101.312287 
L 77.175225 104.215316 
L 79.420153 110.712142 
L 81.665082 114.520113 
L 83.910011 119.209891 
L 86.154939 123.521875 
L 88.399868 130.435202 
L 90.644797 131.603166 
L 92.889725 136.353995 
L 95.134654 138.21343 
L 97.379582 139.479364 
L 99.624511 140.192159 
L 101.86944 143.754364 
L 104.114368 145.242826 
L 106.359297 147.804717 
L 108.604226 150.334421 
L 110.849154 154.329207 
L 113.094083 156.544143 
L 115.339011 158.506551 
L 117.58394 160.158932 
L 119.828869 162.357084 
L 122.073797 163.71844 
L 124.318726 164.888467 
L 126.563655 165.857843 
L 128.808583 167.919051 
L 131.053512 168.556141 
L 133.29844 169.763625 
L 135.543369 171.605056 
L 137.788298 173.944288 
L 140.033226 174.240693 
L 142.278155 174.800142 
L 144.523084 176.450779 
L 146.768012 176.249325 
L 149.012941 177.276959 
L 151.257869 178.972148 
L 153.502798 181.244005 
L 155.747727 182.327974 
L 157.992655 181.895707 
L 160.237584 181.368396 
L 162.482513 182.467271 
L 164.727441 183.485142 
L 166.97237 184.053193 
L 169.217298 185.260053 
L 171.462227 187.623903 
L 173.707156 188.247761 
L 175.952084 188.588875 
L 178.197013 188.138639 
L 180.441942 191.297707 
L 182.68687 191.38515 
L 184.931799 191.97499 
L 187.176727 192.674522 
L 189.421656 194.172649 
L 191.666585 194.25768 
L 193.911513 193.304256 
L 196.156442 193.688609 
L 198.401371 193.999268 
L 200.646299 194.252584 
L 202.891228 195.060637 
L 205.136156 196.818594 
L 207.381085 197.003807 
L 209.626014 196.794356 
L 211.870942 197.341072 
L 214.115871 196.001953 
L 216.3608 196.11345 
L 218.605728 196.313133 
L 220.850657 197.151149 
L 223.095585 197.262695 
L 225.340514 198.988391 
L 227.585443 199.589621 
L 229.830371 199.506779 
L 232.0753 198.16885 
L 234.320229 198.166836 
L 236.565157 197.779795 
L 238.810086 198.269478 
L 241.055014 198.933776 
L 243.299943 200.155621 
L 245.544872 200.408199 
L 247.7898 200.483293 
L 250.034729 200.40386 
L 252.279658 200.545169 
L 254.524586 200.480093 
L 256.769515 201.022589 
L 259.014443 201.481995 
L 261.259372 201.36619 
L 263.504301 201.422913 
L 265.749229 202.255779 
L 267.994158 202.781118 
L 270.239087 203.075492 
L 272.484015 203.261593 
L 274.728944 203.716331 
L 276.973872 203.650035 
L 279.218801 203.167126 
L 281.46373 203.109656 
L 283.708658 203.772243 
L 285.953587 202.86225 
L 288.198516 202.790179 
L 290.443444 202.66129 
L 292.688373 203.203412 
L 294.933301 203.092487 
L 297.17823 203.879168 
L 299.423159 203.719166 
L 301.668087 203.508687 
L 303.913016 203.197686 
L 306.157945 202.931094 
L 308.402873 202.781203 
L 310.647802 202.17118 
L 312.89273 202.005938 
L 315.137659 201.517645 
L 317.382588 201.338436 
L 319.627516 201.515959 
L 321.872445 202.769335 
L 324.117374 203.459723 
L 326.362302 203.608474 
L 328.607231 204.04402 
L 330.852159 204.014397 
L 333.097088 203.75282 
" clip-path="url(#pe6e21ef4f6)" style="fill: none; stroke: #a066c9; stroke-width: 2; stroke-linecap: round"/>
   </g>
   <g id="patch_3">
    <path d="M 47.878906 232.680938 
L 47.878906 29.220937 
" style="fill: none; stroke: #262626; stroke-width: 1.25; stroke-linejoin: miter; stroke-linecap: square"/>
   </g>
   <g id="patch_4">
    <path d="M 47.878906 232.680938 
L 346.678906 232.680938 
" style="fill: none; stroke: #262626; stroke-width: 1.25; stroke-linejoin: miter; stroke-linecap: square"/>
   </g>
   <g id="text_17">
    <!-- Loss -->
    <g style="fill: #262626" transform="translate(180.942656 17.220937) scale(0.14 -0.14)">
     <defs>
      <path id="Arial-BoldMT-4c" d="M 491 0 
L 491 4544 
L 1416 4544 
L 1416 772 
L 3716 772 
L 3716 0 
L 491 0 
z
" transform="scale(0.015625)"/>
      <path id="Arial-BoldMT-6f" d="M 256 1706 
Q 256 2144 472 2553 
Q 688 2963 1083 3178 
Q 1478 3394 1966 3394 
Q 2719 3394 3200 2905 
Q 3681 2416 3681 1669 
Q 3681 916 3195 420 
Q 2709 -75 1972 -75 
Q 1516 -75 1102 131 
Q 688 338 472 736 
Q 256 1134 256 1706 
z
M 1156 1659 
Q 1156 1166 1390 903 
Q 1625 641 1969 641 
Q 2313 641 2545 903 
Q 2778 1166 2778 1666 
Q 2778 2153 2545 2415 
Q 2313 2678 1969 2678 
Q 1625 2678 1390 2415 
Q 1156 2153 1156 1659 
z
" transform="scale(0.015625)"/>
      <path id="Arial-BoldMT-73" d="M 150 947 
L 1031 1081 
Q 1088 825 1259 692 
Q 1431 559 1741 559 
Q 2081 559 2253 684 
Q 2369 772 2369 919 
Q 2369 1019 2306 1084 
Q 2241 1147 2013 1200 
Q 950 1434 666 1628 
Q 272 1897 272 2375 
Q 272 2806 612 3100 
Q 953 3394 1669 3394 
Q 2350 3394 2681 3172 
Q 3013 2950 3138 2516 
L 2309 2363 
Q 2256 2556 2107 2659 
Q 1959 2763 1684 2763 
Q 1338 2763 1188 2666 
Q 1088 2597 1088 2488 
Q 1088 2394 1175 2328 
Q 1294 2241 1995 2081 
Q 2697 1922 2975 1691 
Q 3250 1456 3250 1038 
Q 3250 581 2869 253 
Q 2488 -75 1741 -75 
Q 1063 -75 667 200 
Q 272 475 150 947 
z
" transform="scale(0.015625)"/>
     </defs>
     <use xlink:href="#Arial-BoldMT-4c"/>
     <use xlink:href="#Arial-BoldMT-6f" transform="translate(61.083984 0)"/>
     <use xlink:href="#Arial-BoldMT-73" transform="translate(122.167969 0)"/>
     <use xlink:href="#Arial-BoldMT-73" transform="translate(177.783203 0)"/>
    </g>
   </g>
   <g id="legend_1">
    <g id="line2d_17">
     <path d="M 281.332031 43.144531 
L 292.332031 43.144531 
L 303.332031 43.144531 
" style="fill: none; stroke: #531b93; stroke-width: 2; stroke-linecap: round"/>
    </g>
    <g id="text_18">
     <!-- Train -->
     <g style="fill: #262626" transform="translate(312.132031 46.994531) scale(0.11 -0.11)">
      <defs>
       <path id="ArialMT-54" d="M 1659 0 
L 1659 4041 
L 150 4041 
L 150 4581 
L 3781 4581 
L 3781 4041 
L 2266 4041 
L 2266 0 
L 1659 0 
z
" transform="scale(0.015625)"/>
       <path id="ArialMT-72" d="M 416 0 
L 416 3319 
L 922 3319 
L 922 2816 
Q 1116 3169 1280 3281 
Q 1444 3394 1641 3394 
Q 1925 3394 2219 3213 
L 2025 2691 
Q 1819 2813 1613 2813 
Q 1428 2813 1281 2702 
Q 1134 2591 1072 2394 
Q 978 2094 978 1738 
L 978 0 
L 416 0 
z
" transform="scale(0.015625)"/>
       <path id="ArialMT-61" d="M 2588 409 
Q 2275 144 1986 34 
Q 1697 -75 1366 -75 
Q 819 -75 525 192 
Q 231 459 231 875 
Q 231 1119 342 1320 
Q 453 1522 633 1644 
Q 813 1766 1038 1828 
Q 1203 1872 1538 1913 
Q 2219 1994 2541 2106 
Q 2544 2222 2544 2253 
Q 2544 2597 2384 2738 
Q 2169 2928 1744 2928 
Q 1347 2928 1158 2789 
Q 969 2650 878 2297 
L 328 2372 
Q 403 2725 575 2942 
Q 747 3159 1072 3276 
Q 1397 3394 1825 3394 
Q 2250 3394 2515 3294 
Q 2781 3194 2906 3042 
Q 3031 2891 3081 2659 
Q 3109 2516 3109 2141 
L 3109 1391 
Q 3109 606 3145 398 
Q 3181 191 3288 0 
L 2700 0 
Q 2613 175 2588 409 
z
M 2541 1666 
Q 2234 1541 1622 1453 
Q 1275 1403 1131 1340 
Q 988 1278 909 1158 
Q 831 1038 831 891 
Q 831 666 1001 516 
Q 1172 366 1500 366 
Q 1825 366 2078 508 
Q 2331 650 2450 897 
Q 2541 1088 2541 1459 
L 2541 1666 
z
" transform="scale(0.015625)"/>
       <path id="ArialMT-69" d="M 425 3934 
L 425 4581 
L 988 4581 
L 988 3934 
L 425 3934 
z
M 425 0 
L 425 3319 
L 988 3319 
L 988 0 
L 425 0 
z
" transform="scale(0.015625)"/>
       <path id="ArialMT-6e" d="M 422 0 
L 422 3319 
L 928 3319 
L 928 2847 
Q 1294 3394 1984 3394 
Q 2284 3394 2536 3286 
Q 2788 3178 2913 3003 
Q 3038 2828 3088 2588 
Q 3119 2431 3119 2041 
L 3119 0 
L 2556 0 
L 2556 2019 
Q 2556 2363 2490 2533 
Q 2425 2703 2258 2804 
Q 2091 2906 1866 2906 
Q 1506 2906 1245 2678 
Q 984 2450 984 1813 
L 984 0 
L 422 0 
z
" transform="scale(0.015625)"/>
      </defs>
      <use xlink:href="#ArialMT-54"/>
      <use xlink:href="#ArialMT-72" transform="translate(57.333984 0)"/>
      <use xlink:href="#ArialMT-61" transform="translate(90.634766 0)"/>
      <use xlink:href="#ArialMT-69" transform="translate(146.25 0)"/>
      <use xlink:href="#ArialMT-6e" transform="translate(168.466797 0)"/>
     </g>
    </g>
    <g id="line2d_18">
     <path d="M 281.332031 58.704375 
L 292.332031 58.704375 
L 303.332031 58.704375 
" style="fill: none; stroke: #a066c9; stroke-width: 2; stroke-linecap: round"/>
    </g>
    <g id="text_19">
     <!-- Val -->
     <g style="fill: #262626" transform="translate(312.132031 62.554375) scale(0.11 -0.11)">
      <defs>
       <path id="ArialMT-56" d="M 1803 0 
L 28 4581 
L 684 4581 
L 1875 1253 
Q 2019 853 2116 503 
Q 2222 878 2363 1253 
L 3600 4581 
L 4219 4581 
L 2425 0 
L 1803 0 
z
" transform="scale(0.015625)"/>
       <path id="ArialMT-6c" d="M 409 0 
L 409 4581 
L 972 4581 
L 972 0 
L 409 0 
z
" transform="scale(0.015625)"/>
      </defs>
      <use xlink:href="#ArialMT-56"/>
      <use xlink:href="#ArialMT-61" transform="translate(59.324219 0)"/>
      <use xlink:href="#ArialMT-6c" transform="translate(114.939453 0)"/>
     </g>
    </g>
   </g>
  </g>
  <g id="axes_2">
   <g id="patch_5">
    <path d="M 401.398906 232.680938 
L 700.198906 232.680938 
L 700.198906 29.220937 
L 401.398906 29.220937 
z
" style="fill: #ffffff"/>
   </g>
   <g id="matplotlib.axis_3">
    <g id="xtick_8">
     <g id="line2d_19">
      <g>
       <use xlink:href="#mfe5f540e3b" x="414.980724" y="232.680938" style="fill: #262626; stroke: #262626; stroke-width: 1.25"/>
      </g>
     </g>
     <g id="text_20">
      <!-- 0 -->
      <g style="fill: #262626" transform="translate(411.922209 250.054531) scale(0.11 -0.11)">
       <use xlink:href="#ArialMT-30"/>
      </g>
     </g>
    </g>
    <g id="xtick_9">
     <g id="line2d_20">
      <g>
       <use xlink:href="#mfe5f540e3b" x="459.879297" y="232.680938" style="fill: #262626; stroke: #262626; stroke-width: 1.25"/>
      </g>
     </g>
     <g id="text_21">
      <!-- 20 -->
      <g style="fill: #262626" transform="translate(453.762266 250.054531) scale(0.11 -0.11)">
       <use xlink:href="#ArialMT-32"/>
       <use xlink:href="#ArialMT-30" transform="translate(55.615234 0)"/>
      </g>
     </g>
    </g>
    <g id="xtick_10">
     <g id="line2d_21">
      <g>
       <use xlink:href="#mfe5f540e3b" x="504.777869" y="232.680938" style="fill: #262626; stroke: #262626; stroke-width: 1.25"/>
      </g>
     </g>
     <g id="text_22">
      <!-- 40 -->
      <g style="fill: #262626" transform="translate(498.660838 250.054531) scale(0.11 -0.11)">
       <use xlink:href="#ArialMT-34"/>
       <use xlink:href="#ArialMT-30" transform="translate(55.615234 0)"/>
      </g>
     </g>
    </g>
    <g id="xtick_11">
     <g id="line2d_22">
      <g>
       <use xlink:href="#mfe5f540e3b" x="549.676442" y="232.680938" style="fill: #262626; stroke: #262626; stroke-width: 1.25"/>
      </g>
     </g>
     <g id="text_23">
      <!-- 60 -->
      <g style="fill: #262626" transform="translate(543.559411 250.054531) scale(0.11 -0.11)">
       <use xlink:href="#ArialMT-36"/>
       <use xlink:href="#ArialMT-30" transform="translate(55.615234 0)"/>
      </g>
     </g>
    </g>
    <g id="xtick_12">
     <g id="line2d_23">
      <g>
       <use xlink:href="#mfe5f540e3b" x="594.575014" y="232.680938" style="fill: #262626; stroke: #262626; stroke-width: 1.25"/>
      </g>
     </g>
     <g id="text_24">
      <!-- 80 -->
      <g style="fill: #262626" transform="translate(588.457983 250.054531) scale(0.11 -0.11)">
       <use xlink:href="#ArialMT-38"/>
       <use xlink:href="#ArialMT-30" transform="translate(55.615234 0)"/>
      </g>
     </g>
    </g>
    <g id="xtick_13">
     <g id="line2d_24">
      <g>
       <use xlink:href="#mfe5f540e3b" x="639.473587" y="232.680938" style="fill: #262626; stroke: #262626; stroke-width: 1.25"/>
      </g>
     </g>
     <g id="text_25">
      <!-- 100 -->
      <g style="fill: #262626" transform="translate(630.29804 250.054531) scale(0.11 -0.11)">
       <use xlink:href="#ArialMT-31"/>
       <use xlink:href="#ArialMT-30" transform="translate(55.615234 0)"/>
       <use xlink:href="#ArialMT-30" transform="translate(111.230469 0)"/>
      </g>
     </g>
    </g>
    <g id="xtick_14">
     <g id="line2d_25">
      <g>
       <use xlink:href="#mfe5f540e3b" x="684.372159" y="232.680938" style="fill: #262626; stroke: #262626; stroke-width: 1.25"/>
      </g>
     </g>
     <g id="text_26">
      <!-- 120 -->
      <g style="fill: #262626" transform="translate(675.196613 250.054531) scale(0.11 -0.11)">
       <use xlink:href="#ArialMT-31"/>
       <use xlink:href="#ArialMT-32" transform="translate(55.615234 0)"/>
       <use xlink:href="#ArialMT-30" transform="translate(111.230469 0)"/>
      </g>
     </g>
    </g>
    <g id="text_27">
     <!-- Epoch -->
     <g style="fill: #262626" transform="translate(532.369375 265.545938) scale(0.13 -0.13)">
      <use xlink:href="#ArialMT-45"/>
      <use xlink:href="#ArialMT-70" transform="translate(66.699219 0)"/>
      <use xlink:href="#ArialMT-6f" transform="translate(122.314453 0)"/>
      <use xlink:href="#ArialMT-63" transform="translate(177.929688 0)"/>
      <use xlink:href="#ArialMT-68" transform="translate(227.929688 0)"/>
     </g>
    </g>
   </g>
   <g id="matplotlib.axis_4">
    <g id="ytick_8">
     <g id="line2d_26">
      <g>
       <use xlink:href="#m292e84e9fc" x="401.398906" y="232.680938" style="fill: #262626; stroke: #262626; stroke-width: 1.25"/>
      </g>
     </g>
     <g id="text_28">
      <!-- 0.0 -->
      <g style="fill: #262626" transform="translate(376.608906 236.617734) scale(0.11 -0.11)">
       <use xlink:href="#ArialMT-30"/>
       <use xlink:href="#ArialMT-2e" transform="translate(55.615234 0)"/>
       <use xlink:href="#ArialMT-30" transform="translate(83.398438 0)"/>
      </g>
     </g>
    </g>
    <g id="ytick_9">
     <g id="line2d_27">
      <g>
       <use xlink:href="#m292e84e9fc" x="401.398906" y="191.988938" style="fill: #262626; stroke: #262626; stroke-width: 1.25"/>
      </g>
     </g>
     <g id="text_29">
      <!-- 0.2 -->
      <g style="fill: #262626" transform="translate(376.608906 195.925734) scale(0.11 -0.11)">
       <use xlink:href="#ArialMT-30"/>
       <use xlink:href="#ArialMT-2e" transform="translate(55.615234 0)"/>
       <use xlink:href="#ArialMT-32" transform="translate(83.398438 0)"/>
      </g>
     </g>
    </g>
    <g id="ytick_10">
     <g id="line2d_28">
      <g>
       <use xlink:href="#m292e84e9fc" x="401.398906" y="151.296938" style="fill: #262626; stroke: #262626; stroke-width: 1.25"/>
      </g>
     </g>
     <g id="text_30">
      <!-- 0.4 -->
      <g style="fill: #262626" transform="translate(376.608906 155.233734) scale(0.11 -0.11)">
       <use xlink:href="#ArialMT-30"/>
       <use xlink:href="#ArialMT-2e" transform="translate(55.615234 0)"/>
       <use xlink:href="#ArialMT-34" transform="translate(83.398438 0)"/>
      </g>
     </g>
    </g>
    <g id="ytick_11">
     <g id="line2d_29">
      <g>
       <use xlink:href="#m292e84e9fc" x="401.398906" y="110.604937" style="fill: #262626; stroke: #262626; stroke-width: 1.25"/>
      </g>
     </g>
     <g id="text_31">
      <!-- 0.6 -->
      <g style="fill: #262626" transform="translate(376.608906 114.541734) scale(0.11 -0.11)">
       <use xlink:href="#ArialMT-30"/>
       <use xlink:href="#ArialMT-2e" transform="translate(55.615234 0)"/>
       <use xlink:href="#ArialMT-36" transform="translate(83.398438 0)"/>
      </g>
     </g>
    </g>
    <g id="ytick_12">
     <g id="line2d_30">
      <g>
       <use xlink:href="#m292e84e9fc" x="401.398906" y="69.912937" style="fill: #262626; stroke: #262626; stroke-width: 1.25"/>
      </g>
     </g>
     <g id="text_32">
      <!-- 0.8 -->
      <g style="fill: #262626" transform="translate(376.608906 73.849734) scale(0.11 -0.11)">
       <use xlink:href="#ArialMT-30"/>
       <use xlink:href="#ArialMT-2e" transform="translate(55.615234 0)"/>
       <use xlink:href="#ArialMT-38" transform="translate(83.398438 0)"/>
      </g>
     </g>
    </g>
    <g id="ytick_13">
     <g id="line2d_31">
      <g>
       <use xlink:href="#m292e84e9fc" x="401.398906" y="29.220937" style="fill: #262626; stroke: #262626; stroke-width: 1.25"/>
      </g>
     </g>
     <g id="text_33">
      <!-- 1.0 -->
      <g style="fill: #262626" transform="translate(376.608906 33.157734) scale(0.11 -0.11)">
       <use xlink:href="#ArialMT-31"/>
       <use xlink:href="#ArialMT-2e" transform="translate(55.615234 0)"/>
       <use xlink:href="#ArialMT-30" transform="translate(83.398438 0)"/>
      </g>
     </g>
    </g>
    <g id="text_34">
     <!-- Score -->
     <g style="fill: #262626" transform="translate(370.025156 147.930156) rotate(-90) scale(0.13 -0.13)">
      <defs>
       <path id="ArialMT-53" d="M 288 1472 
L 859 1522 
Q 900 1178 1048 958 
Q 1197 738 1509 602 
Q 1822 466 2213 466 
Q 2559 466 2825 569 
Q 3091 672 3220 851 
Q 3350 1031 3350 1244 
Q 3350 1459 3225 1620 
Q 3100 1781 2813 1891 
Q 2628 1963 1997 2114 
Q 1366 2266 1113 2400 
Q 784 2572 623 2826 
Q 463 3081 463 3397 
Q 463 3744 659 4045 
Q 856 4347 1234 4503 
Q 1613 4659 2075 4659 
Q 2584 4659 2973 4495 
Q 3363 4331 3572 4012 
Q 3781 3694 3797 3291 
L 3216 3247 
Q 3169 3681 2898 3903 
Q 2628 4125 2100 4125 
Q 1550 4125 1298 3923 
Q 1047 3722 1047 3438 
Q 1047 3191 1225 3031 
Q 1400 2872 2139 2705 
Q 2878 2538 3153 2413 
Q 3553 2228 3743 1945 
Q 3934 1663 3934 1294 
Q 3934 928 3725 604 
Q 3516 281 3123 101 
Q 2731 -78 2241 -78 
Q 1619 -78 1198 103 
Q 778 284 539 648 
Q 300 1013 288 1472 
z
" transform="scale(0.015625)"/>
       <path id="ArialMT-65" d="M 2694 1069 
L 3275 997 
Q 3138 488 2766 206 
Q 2394 -75 1816 -75 
Q 1088 -75 661 373 
Q 234 822 234 1631 
Q 234 2469 665 2931 
Q 1097 3394 1784 3394 
Q 2450 3394 2872 2941 
Q 3294 2488 3294 1666 
Q 3294 1616 3291 1516 
L 816 1516 
Q 847 969 1125 678 
Q 1403 388 1819 388 
Q 2128 388 2347 550 
Q 2566 713 2694 1069 
z
M 847 1978 
L 2700 1978 
Q 2663 2397 2488 2606 
Q 2219 2931 1791 2931 
Q 1403 2931 1139 2672 
Q 875 2413 847 1978 
z
" transform="scale(0.015625)"/>
      </defs>
      <use xlink:href="#ArialMT-53"/>
      <use xlink:href="#ArialMT-63" transform="translate(66.699219 0)"/>
      <use xlink:href="#ArialMT-6f" transform="translate(116.699219 0)"/>
      <use xlink:href="#ArialMT-72" transform="translate(172.314453 0)"/>
      <use xlink:href="#ArialMT-65" transform="translate(205.615234 0)"/>
     </g>
    </g>
   </g>
   <g id="line2d_32">
    <path d="M 414.980724 177.006416 
L 417.225653 177.307777 
L 419.470582 175.55781 
L 421.71551 173.429955 
L 423.960439 171.098491 
L 426.205368 168.210261 
L 428.450296 163.828218 
L 430.695225 163.544814 
L 432.940153 160.323184 
L 435.185082 157.66131 
L 437.430011 155.581399 
L 439.674939 153.454111 
L 441.919868 150.221999 
L 444.164797 149.105307 
L 446.409725 147.892091 
L 448.654654 148.185014 
L 450.899582 147.435182 
L 453.144511 147.570901 
L 455.38944 146.054536 
L 457.634368 146.437754 
L 459.879297 143.925993 
L 462.124226 144.375154 
L 464.369154 142.163071 
L 466.614083 141.19906 
L 468.859011 140.248769 
L 471.10394 140.425622 
L 473.348869 137.995435 
L 475.593797 137.082054 
L 477.838726 137.518794 
L 480.083655 136.945454 
L 482.328583 135.861315 
L 484.573512 135.416471 
L 486.81844 135.406934 
L 489.063369 134.473169 
L 491.308298 132.51249 
L 493.553226 131.44528 
L 495.798155 133.063321 
L 498.043084 132.04595 
L 500.288012 133.389783 
L 502.532941 133.205288 
L 504.777869 133.678017 
L 507.022798 131.009914 
L 509.267727 130.442693 
L 511.512655 130.924187 
L 513.757584 130.092954 
L 516.002513 129.195588 
L 518.247441 129.265815 
L 520.49237 128.809404 
L 522.737298 128.183654 
L 524.982227 127.768417 
L 527.227156 126.917349 
L 529.472084 126.321374 
L 531.717013 127.561754 
L 533.961942 125.122017 
L 536.20687 125.883919 
L 538.451799 126.242787 
L 540.696727 126.158134 
L 542.941656 124.363752 
L 545.186585 124.16314 
L 547.431513 122.614296 
L 549.676442 122.019115 
L 551.921371 122.712891 
L 554.166299 121.854377 
L 556.411228 121.607368 
L 558.656156 122.072983 
L 560.901085 122.833239 
L 563.146014 122.16758 
L 565.390942 122.929482 
L 567.635871 121.817059 
L 569.8808 121.170859 
L 572.125728 120.637935 
L 574.370657 120.486907 
L 576.615585 119.53876 
L 578.860514 119.951485 
L 581.105443 120.937996 
L 583.350371 121.417589 
L 585.5953 120.539279 
L 587.840229 120.737155 
L 590.085157 121.561561 
L 592.330086 120.842805 
L 594.575014 119.323321 
L 596.819943 119.383094 
L 599.064872 118.856188 
L 601.3098 119.015147 
L 603.554729 118.676505 
L 605.799658 119.185743 
L 608.044586 118.759487 
L 610.289515 119.512909 
L 612.534443 119.018155 
L 614.779372 118.95191 
L 617.024301 119.080908 
L 619.269229 120.219887 
L 621.514158 119.9131 
L 623.759087 118.823377 
L 626.004015 118.471514 
L 628.248944 117.888751 
L 630.493872 117.448904 
L 632.738801 118.230337 
L 634.98373 118.433877 
L 637.228658 118.80587 
L 639.473587 118.061037 
L 641.718516 117.728801 
L 643.963444 116.255852 
L 646.208373 116.262356 
L 648.453301 116.916331 
L 650.69823 118.285306 
L 652.943159 119.844089 
L 655.188087 120.228278 
L 657.433016 120.200852 
L 659.677945 119.462475 
L 661.922873 118.46898 
L 664.167802 116.506987 
L 666.41273 116.118886 
L 668.657659 115.411258 
L 670.902588 115.040498 
L 673.147516 115.237923 
L 675.392445 115.463117 
L 677.637374 115.908443 
L 679.882302 116.887479 
L 682.127231 117.189606 
L 684.372159 117.137636 
L 686.617088 117.653426 
" clip-path="url(#pf854160877)" style="fill: none; stroke: #531b93; stroke-width: 2; stroke-linecap: round"/>
   </g>
   <g id="line2d_33">
    <path d="M 414.980724 168.57479 
L 417.225653 171.569031 
L 419.470582 170.692525 
L 421.71551 164.690714 
L 423.960439 163.467078 
L 426.205368 155.990963 
L 428.450296 147.958517 
L 430.695225 141.641318 
L 432.940153 140.45903 
L 435.185082 137.336515 
L 437.430011 136.31262 
L 439.674939 133.587219 
L 441.919868 131.040601 
L 444.164797 132.183519 
L 446.409725 127.80453 
L 448.654654 126.185104 
L 450.899582 126.034494 
L 453.144511 125.637821 
L 455.38944 122.446997 
L 457.634368 121.257099 
L 459.879297 120.905092 
L 462.124226 118.595282 
L 464.369154 117.384679 
L 466.614083 116.456662 
L 468.859011 115.60062 
L 471.10394 114.416098 
L 473.348869 114.211521 
L 475.593797 113.390733 
L 477.838726 112.172927 
L 480.083655 111.863416 
L 482.328583 111.005127 
L 484.573512 110.645482 
L 486.81844 110.117782 
L 489.063369 109.369602 
L 491.308298 108.488621 
L 493.553226 108.563105 
L 495.798155 107.545997 
L 498.043084 106.772042 
L 500.288012 106.498085 
L 502.532941 105.918738 
L 504.777869 104.797004 
L 507.022798 104.191948 
L 509.267727 103.849306 
L 511.512655 103.865288 
L 513.757584 104.05954 
L 516.002513 103.72399 
L 518.247441 103.328305 
L 520.49237 102.949196 
L 522.737298 102.442716 
L 524.982227 101.531897 
L 527.227156 101.353938 
L 529.472084 100.912668 
L 531.717013 100.959683 
L 533.961942 99.8243 
L 536.20687 99.629029 
L 538.451799 99.067726 
L 540.696727 98.975875 
L 542.941656 98.418538 
L 545.186585 98.330715 
L 547.431513 98.907867 
L 549.676442 98.824266 
L 551.921371 98.404195 
L 554.166299 98.250043 
L 556.411228 97.838949 
L 558.656156 96.778934 
L 560.901085 96.546077 
L 563.146014 96.734224 
L 565.390942 96.436526 
L 567.635871 97.223463 
L 569.8808 97.082112 
L 572.125728 96.973332 
L 574.370657 96.412109 
L 576.615585 96.123056 
L 578.860514 95.165499 
L 581.105443 94.87388 
L 583.350371 94.863253 
L 585.5953 95.366438 
L 587.840229 95.427386 
L 590.085157 95.372864 
L 592.330086 95.163193 
L 594.575014 94.875384 
L 596.819943 94.376336 
L 599.064872 94.40686 
L 601.3098 94.457457 
L 603.554729 94.479204 
L 605.799658 94.313841 
L 608.044586 94.445329 
L 610.289515 94.088255 
L 612.534443 93.806108 
L 614.779372 93.769656 
L 617.024301 93.703436 
L 619.269229 93.086495 
L 621.514158 92.790688 
L 623.759087 92.762537 
L 626.004015 92.579046 
L 628.248944 92.412528 
L 630.493872 92.224137 
L 632.738801 92.419764 
L 634.98373 92.181328 
L 637.228658 91.91186 
L 639.473587 91.947265 
L 641.718516 92.030488 
L 643.963444 91.858684 
L 646.208373 91.713391 
L 648.453301 91.789544 
L 650.69823 91.711177 
L 652.943159 91.913472 
L 655.188087 92.143441 
L 657.433016 92.150025 
L 659.677945 91.98923 
L 661.922873 91.901385 
L 664.167802 91.761266 
L 666.41273 91.406272 
L 668.657659 91.384739 
L 670.902588 91.412995 
L 673.147516 91.399209 
L 675.392445 91.102787 
L 677.637374 91.123937 
L 679.882302 91.221839 
L 682.127231 91.079829 
L 684.372159 91.01744 
L 686.617088 91.084896 
" clip-path="url(#pf854160877)" style="fill: none; stroke: #a066c9; stroke-width: 2; stroke-linecap: round"/>
   </g>
   <g id="line2d_34">
    <path d="M 414.980724 179.952333 
L 417.225653 174.671464 
L 419.470582 171.484603 
L 421.71551 172.106008 
L 423.960439 167.867634 
L 426.205368 169.914476 
L 428.450296 171.774876 
L 430.695225 177.835422 
L 432.940153 173.712323 
L 435.185082 172.086383 
L 437.430011 169.548532 
L 439.674939 168.230791 
L 441.919868 165.059956 
L 444.164797 161.314736 
L 446.409725 163.652241 
L 448.654654 165.080464 
L 450.899582 163.818737 
L 453.144511 164.262113 
L 455.38944 165.000967 
L 457.634368 166.362353 
L 459.879297 162.696481 
L 462.124226 165.283965 
L 464.369154 162.710059 
L 466.614083 161.957242 
L 468.859011 161.083518 
L 471.10394 162.288335 
L 473.348869 158.448936 
L 475.593797 157.667431 
L 477.838726 159.386461 
L 480.083655 158.798984 
L 482.328583 157.689811 
L 484.573512 157.251469 
L 486.81844 157.57044 
L 489.063369 156.617461 
L 491.308298 154.107635 
L 493.553226 152.282999 
L 495.798155 155.654023 
L 498.043084 154.539896 
L 500.288012 156.723899 
L 502.532941 156.718579 
L 504.777869 158.269321 
L 507.022798 154.429623 
L 509.267727 153.787079 
L 511.512655 154.439445 
L 513.757584 152.810047 
L 516.002513 151.700225 
L 518.247441 152.188539 
L 520.49237 151.704488 
L 522.737298 151.091741 
L 524.982227 151.261518 
L 527.227156 149.958131 
L 529.472084 149.232166 
L 531.717013 151.096786 
L 533.961942 148.214643 
L 536.20687 149.634451 
L 538.451799 150.607467 
L 540.696727 150.604774 
L 542.941656 148.206123 
L 545.186585 147.938143 
L 547.431513 144.566336 
L 549.676442 143.684833 
L 551.921371 145.054974 
L 554.166299 143.706829 
L 556.411228 143.560958 
L 558.656156 145.51553 
L 560.901085 146.874413 
L 563.146014 145.69128 
L 565.390942 147.187784 
L 567.635871 144.676837 
L 569.8808 143.643197 
L 572.125728 142.892819 
L 574.370657 143.05242 
L 576.615585 141.668789 
L 578.860514 143.186809 
L 581.105443 145.060349 
L 583.350371 145.779626 
L 585.5953 143.870685 
L 587.840229 144.170122 
L 590.085157 145.506345 
L 592.330086 144.48833 
L 594.575014 142.311367 
L 596.819943 142.824101 
L 599.064872 141.886141 
L 601.3098 142.123074 
L 603.554729 141.588857 
L 605.799658 142.476387 
L 608.044586 141.618655 
L 610.289515 143.150295 
L 612.534443 142.567701 
L 614.779372 142.445197 
L 617.024301 142.710708 
L 619.269229 145.131788 
L 621.514158 144.828539 
L 623.759087 143.062839 
L 626.004015 142.594889 
L 628.248944 141.785081 
L 630.493872 141.184353 
L 632.738801 142.278031 
L 634.98373 142.807859 
L 637.228658 143.676777 
L 639.473587 142.368329 
L 641.718516 141.775224 
L 643.963444 139.488706 
L 646.208373 139.57708 
L 648.453301 140.507758 
L 650.69823 142.801029 
L 652.943159 145.086148 
L 655.188087 145.62809 
L 657.433016 145.584698 
L 659.677945 144.545037 
L 661.922873 143.054742 
L 664.167802 140.007375 
L 666.41273 139.568541 
L 668.657659 138.38358 
L 670.902588 137.743899 
L 673.147516 138.080828 
L 675.392445 138.731474 
L 677.637374 139.500366 
L 679.882302 141.068532 
L 682.127231 141.680848 
L 684.372159 141.625224 
L 686.617088 142.407391 
" clip-path="url(#pf854160877)" style="fill: none; stroke-dasharray: 5.55,2.4; stroke-dashoffset: 0; stroke: #888888; stroke-width: 1.5"/>
   </g>
   <g id="line2d_35">
    <path d="M 414.980724 154.544421 
L 417.225653 160.825441 
L 419.470582 161.344736 
L 421.71551 147.107154 
L 423.960439 147.903657 
L 426.205368 133.024424 
L 428.450296 120.943656 
L 430.695225 103.599418 
L 432.940153 108.72237 
L 435.185082 105.16229 
L 437.430011 107.127435 
L 439.674939 103.640354 
L 441.919868 104.352039 
L 444.164797 108.735959 
L 446.409725 100.107655 
L 448.654654 94.157404 
L 450.899582 95.1307 
L 453.144511 93.627842 
L 455.38944 88.362732 
L 457.634368 83.840923 
L 459.879297 88.672663 
L 462.124226 81.495611 
L 464.369154 82.966595 
L 466.614083 82.371859 
L 468.859011 81.9921 
L 471.10394 78.441309 
L 473.348869 82.604064 
L 475.593797 82.283381 
L 477.838726 78.279966 
L 480.083655 78.992238 
L 482.328583 78.784402 
L 484.573512 78.612757 
L 486.81844 77.171457 
L 489.063369 77.080443 
L 491.308298 78.398163 
L 493.553226 80.530078 
L 495.798155 74.615065 
L 498.043084 74.285791 
L 500.288012 70.448731 
L 502.532941 68.933155 
L 504.777869 64.951927 
L 507.022798 68.517264 
L 509.267727 68.803689 
L 511.512655 67.486176 
L 513.757584 69.345793 
L 516.002513 70.348725 
L 518.247441 69.34225 
L 520.49237 69.083807 
L 522.737298 69.05164 
L 524.982227 67.759153 
L 527.227156 68.692246 
L 529.472084 68.450865 
L 531.717013 66.028875 
L 533.961942 68.385041 
L 536.20687 66.487626 
L 538.451799 64.329442 
L 540.696727 64.388785 
L 542.941656 66.532099 
L 545.186585 66.668175 
L 547.431513 70.461134 
L 549.676442 71.411475 
L 551.921371 68.864895 
L 554.166299 69.824472 
L 556.411228 69.024942 
L 558.656156 65.937139 
L 560.901085 63.853292 
L 563.146014 65.646603 
L 565.390942 63.640762 
L 567.635871 67.556276 
L 569.8808 68.129814 
L 572.125728 68.87451 
L 574.370657 67.677386 
L 576.615585 68.428931 
L 578.860514 65.414958 
L 581.105443 63.012892 
L 583.350371 61.914143 
L 585.5953 64.606595 
L 587.840229 64.484218 
L 590.085157 62.728416 
L 592.330086 63.47465 
L 594.575014 65.685454 
L 596.819943 64.376262 
L 599.064872 65.287909 
L 601.3098 65.219704 
L 603.554729 65.939246 
L 605.799658 64.451406 
L 608.044586 65.395279 
L 610.289515 63.202031 
L 612.534443 63.378062 
L 614.779372 63.388172 
L 617.024301 63.019509 
L 619.269229 59.615121 
L 621.514158 59.323738 
L 623.759087 61.187191 
L 626.004015 61.242094 
L 628.248944 61.866993 
L 630.493872 62.069377 
L 632.738801 61.081385 
L 634.98373 60.114396 
L 637.228658 58.871991 
L 639.473587 60.193701 
L 641.718516 61.056726 
L 643.963444 63.252869 
L 646.208373 62.810562 
L 648.453301 61.641487 
L 650.69823 58.977029 
L 652.943159 56.391908 
L 655.188087 56.515792 
L 657.433016 56.54682 
L 659.677945 57.556453 
L 661.922873 59.212691 
L 664.167802 62.61822 
L 666.41273 62.201499 
L 668.657659 63.359743 
L 670.902588 64.078349 
L 673.147516 63.743393 
L 675.392445 62.649202 
L 677.637374 62.086504 
L 679.882302 60.701767 
L 682.127231 59.812696 
L 684.372159 59.698985 
L 686.617088 58.966985 
" clip-path="url(#pf854160877)" style="fill: none; stroke-dasharray: 5.55,2.4; stroke-dashoffset: 0; stroke: #cccccc; stroke-width: 1.5"/>
   </g>
   <g id="patch_6">
    <path d="M 401.398906 232.680938 
L 401.398906 29.220937 
" style="fill: none; stroke: #262626; stroke-width: 1.25; stroke-linejoin: miter; stroke-linecap: square"/>
   </g>
   <g id="patch_7">
    <path d="M 401.398906 232.680938 
L 700.198906 232.680938 
" style="fill: none; stroke: #262626; stroke-width: 1.25; stroke-linejoin: miter; stroke-linecap: square"/>
   </g>
   <g id="text_35">
    <!-- Validation Metrics -->
    <g style="fill: #262626" transform="translate(491.284688 17.220937) scale(0.14 -0.14)">
     <defs>
      <path id="Arial-BoldMT-56" d="M 1634 0 
L -3 4581 
L 1000 4581 
L 2159 1191 
L 3281 4581 
L 4263 4581 
L 2622 0 
L 1634 0 
z
" transform="scale(0.015625)"/>
      <path id="Arial-BoldMT-61" d="M 1116 2306 
L 319 2450 
Q 453 2931 781 3162 
Q 1109 3394 1756 3394 
Q 2344 3394 2631 3255 
Q 2919 3116 3036 2902 
Q 3153 2688 3153 2116 
L 3144 1091 
Q 3144 653 3186 445 
Q 3228 238 3344 0 
L 2475 0 
Q 2441 88 2391 259 
Q 2369 338 2359 363 
Q 2134 144 1878 34 
Q 1622 -75 1331 -75 
Q 819 -75 523 203 
Q 228 481 228 906 
Q 228 1188 362 1408 
Q 497 1628 739 1745 
Q 981 1863 1438 1950 
Q 2053 2066 2291 2166 
L 2291 2253 
Q 2291 2506 2166 2614 
Q 2041 2722 1694 2722 
Q 1459 2722 1328 2630 
Q 1197 2538 1116 2306 
z
M 2291 1594 
Q 2122 1538 1756 1459 
Q 1391 1381 1278 1306 
Q 1106 1184 1106 997 
Q 1106 813 1243 678 
Q 1381 544 1594 544 
Q 1831 544 2047 700 
Q 2206 819 2256 991 
Q 2291 1103 2291 1419 
L 2291 1594 
z
" transform="scale(0.015625)"/>
      <path id="Arial-BoldMT-6c" d="M 459 0 
L 459 4581 
L 1338 4581 
L 1338 0 
L 459 0 
z
" transform="scale(0.015625)"/>
      <path id="Arial-BoldMT-69" d="M 459 3769 
L 459 4581 
L 1338 4581 
L 1338 3769 
L 459 3769 
z
M 459 0 
L 459 3319 
L 1338 3319 
L 1338 0 
L 459 0 
z
" transform="scale(0.015625)"/>
      <path id="Arial-BoldMT-64" d="M 3503 0 
L 2688 0 
L 2688 488 
Q 2484 203 2207 64 
Q 1931 -75 1650 -75 
Q 1078 -75 670 386 
Q 263 847 263 1672 
Q 263 2516 659 2955 
Q 1056 3394 1663 3394 
Q 2219 3394 2625 2931 
L 2625 4581 
L 3503 4581 
L 3503 0 
z
M 1159 1731 
Q 1159 1200 1306 963 
Q 1519 619 1900 619 
Q 2203 619 2415 876 
Q 2628 1134 2628 1647 
Q 2628 2219 2422 2470 
Q 2216 2722 1894 2722 
Q 1581 2722 1370 2473 
Q 1159 2225 1159 1731 
z
" transform="scale(0.015625)"/>
      <path id="Arial-BoldMT-74" d="M 1981 3319 
L 1981 2619 
L 1381 2619 
L 1381 1281 
Q 1381 875 1398 808 
Q 1416 741 1477 697 
Q 1538 653 1625 653 
Q 1747 653 1978 738 
L 2053 56 
Q 1747 -75 1359 -75 
Q 1122 -75 931 4 
Q 741 84 652 211 
Q 563 338 528 553 
Q 500 706 500 1172 
L 500 2619 
L 97 2619 
L 97 3319 
L 500 3319 
L 500 3978 
L 1381 4491 
L 1381 3319 
L 1981 3319 
z
" transform="scale(0.015625)"/>
      <path id="Arial-BoldMT-6e" d="M 3478 0 
L 2600 0 
L 2600 1694 
Q 2600 2231 2544 2389 
Q 2488 2547 2361 2634 
Q 2234 2722 2056 2722 
Q 1828 2722 1647 2597 
Q 1466 2472 1398 2265 
Q 1331 2059 1331 1503 
L 1331 0 
L 453 0 
L 453 3319 
L 1269 3319 
L 1269 2831 
Q 1703 3394 2363 3394 
Q 2653 3394 2893 3289 
Q 3134 3184 3257 3021 
Q 3381 2859 3429 2653 
Q 3478 2447 3478 2063 
L 3478 0 
z
" transform="scale(0.015625)"/>
      <path id="Arial-BoldMT-20" transform="scale(0.015625)"/>
      <path id="Arial-BoldMT-4d" d="M 453 0 
L 453 4581 
L 1838 4581 
L 2669 1456 
L 3491 4581 
L 4878 4581 
L 4878 0 
L 4019 0 
L 4019 3606 
L 3109 0 
L 2219 0 
L 1313 3606 
L 1313 0 
L 453 0 
z
" transform="scale(0.015625)"/>
      <path id="Arial-BoldMT-65" d="M 2381 1056 
L 3256 909 
Q 3088 428 2723 176 
Q 2359 -75 1813 -75 
Q 947 -75 531 491 
Q 203 944 203 1634 
Q 203 2459 634 2926 
Q 1066 3394 1725 3394 
Q 2466 3394 2894 2905 
Q 3322 2416 3303 1406 
L 1103 1406 
Q 1113 1016 1316 798 
Q 1519 581 1822 581 
Q 2028 581 2168 693 
Q 2309 806 2381 1056 
z
M 2431 1944 
Q 2422 2325 2234 2523 
Q 2047 2722 1778 2722 
Q 1491 2722 1303 2513 
Q 1116 2303 1119 1944 
L 2431 1944 
z
" transform="scale(0.015625)"/>
      <path id="Arial-BoldMT-72" d="M 1300 0 
L 422 0 
L 422 3319 
L 1238 3319 
L 1238 2847 
Q 1447 3181 1614 3287 
Q 1781 3394 1994 3394 
Q 2294 3394 2572 3228 
L 2300 2463 
Q 2078 2606 1888 2606 
Q 1703 2606 1575 2504 
Q 1447 2403 1373 2137 
Q 1300 1872 1300 1025 
L 1300 0 
z
" transform="scale(0.015625)"/>
      <path id="Arial-BoldMT-63" d="M 3353 2338 
L 2488 2181 
Q 2444 2441 2289 2572 
Q 2134 2703 1888 2703 
Q 1559 2703 1364 2476 
Q 1169 2250 1169 1719 
Q 1169 1128 1367 884 
Q 1566 641 1900 641 
Q 2150 641 2309 783 
Q 2469 925 2534 1272 
L 3397 1125 
Q 3263 531 2881 228 
Q 2500 -75 1859 -75 
Q 1131 -75 698 384 
Q 266 844 266 1656 
Q 266 2478 700 2936 
Q 1134 3394 1875 3394 
Q 2481 3394 2839 3133 
Q 3197 2872 3353 2338 
z
" transform="scale(0.015625)"/>
     </defs>
     <use xlink:href="#Arial-BoldMT-56"/>
     <use xlink:href="#Arial-BoldMT-61" transform="translate(61.199219 0)"/>
     <use xlink:href="#Arial-BoldMT-6c" transform="translate(116.814453 0)"/>
     <use xlink:href="#Arial-BoldMT-69" transform="translate(144.597656 0)"/>
     <use xlink:href="#Arial-BoldMT-64" transform="translate(172.380859 0)"/>
     <use xlink:href="#Arial-BoldMT-61" transform="translate(233.464844 0)"/>
     <use xlink:href="#Arial-BoldMT-74" transform="translate(289.080078 0)"/>
     <use xlink:href="#Arial-BoldMT-69" transform="translate(322.380859 0)"/>
     <use xlink:href="#Arial-BoldMT-6f" transform="translate(350.164062 0)"/>
     <use xlink:href="#Arial-BoldMT-6e" transform="translate(411.248047 0)"/>
     <use xlink:href="#Arial-BoldMT-20" transform="translate(472.332031 0)"/>
     <use xlink:href="#Arial-BoldMT-4d" transform="translate(500.115234 0)"/>
     <use xlink:href="#Arial-BoldMT-65" transform="translate(583.416016 0)"/>
     <use xlink:href="#Arial-BoldMT-74" transform="translate(639.03125 0)"/>
     <use xlink:href="#Arial-BoldMT-72" transform="translate(672.332031 0)"/>
     <use xlink:href="#Arial-BoldMT-69" transform="translate(711.248047 0)"/>
     <use xlink:href="#Arial-BoldMT-63" transform="translate(739.03125 0)"/>
     <use xlink:href="#Arial-BoldMT-73" transform="translate(794.646484 0)"/>
    </g>
   </g>
   <g id="legend_2">
    <g id="line2d_36">
     <path d="M 614.259688 170.065156 
L 625.259688 170.065156 
L 636.259688 170.065156 
" style="fill: none; stroke: #531b93; stroke-width: 2; stroke-linecap: round"/>
    </g>
    <g id="text_36">
     <!-- F1 -->
     <g style="fill: #262626" transform="translate(645.059687 173.915156) scale(0.11 -0.11)">
      <defs>
       <path id="ArialMT-46" d="M 525 0 
L 525 4581 
L 3616 4581 
L 3616 4041 
L 1131 4041 
L 1131 2622 
L 3281 2622 
L 3281 2081 
L 1131 2081 
L 1131 0 
L 525 0 
z
" transform="scale(0.015625)"/>
      </defs>
      <use xlink:href="#ArialMT-46"/>
      <use xlink:href="#ArialMT-31" transform="translate(61.083984 0)"/>
     </g>
    </g>
    <g id="line2d_37">
     <path d="M 614.259688 185.625 
L 625.259688 185.625 
L 636.259688 185.625 
" style="fill: none; stroke: #a066c9; stroke-width: 2; stroke-linecap: round"/>
    </g>
    <g id="text_37">
     <!-- F2 -->
     <g style="fill: #262626" transform="translate(645.059687 189.475) scale(0.11 -0.11)">
      <use xlink:href="#ArialMT-46"/>
      <use xlink:href="#ArialMT-32" transform="translate(61.083984 0)"/>
     </g>
    </g>
    <g id="line2d_38">
     <path d="M 614.259688 201.184844 
L 625.259688 201.184844 
L 636.259688 201.184844 
" style="fill: none; stroke-dasharray: 5.55,2.4; stroke-dashoffset: 0; stroke: #888888; stroke-width: 1.5"/>
    </g>
    <g id="text_38">
     <!-- Precision -->
     <g style="fill: #262626" transform="translate(645.059687 205.034844) scale(0.11 -0.11)">
      <defs>
       <path id="ArialMT-50" d="M 494 0 
L 494 4581 
L 2222 4581 
Q 2678 4581 2919 4538 
Q 3256 4481 3484 4323 
Q 3713 4166 3852 3881 
Q 3991 3597 3991 3256 
Q 3991 2672 3619 2267 
Q 3247 1863 2275 1863 
L 1100 1863 
L 1100 0 
L 494 0 
z
M 1100 2403 
L 2284 2403 
Q 2872 2403 3119 2622 
Q 3366 2841 3366 3238 
Q 3366 3525 3220 3729 
Q 3075 3934 2838 4000 
Q 2684 4041 2272 4041 
L 1100 4041 
L 1100 2403 
z
" transform="scale(0.015625)"/>
      </defs>
      <use xlink:href="#ArialMT-50"/>
      <use xlink:href="#ArialMT-72" transform="translate(66.699219 0)"/>
      <use xlink:href="#ArialMT-65" transform="translate(100 0)"/>
      <use xlink:href="#ArialMT-63" transform="translate(155.615234 0)"/>
      <use xlink:href="#ArialMT-69" transform="translate(205.615234 0)"/>
      <use xlink:href="#ArialMT-73" transform="translate(227.832031 0)"/>
      <use xlink:href="#ArialMT-69" transform="translate(277.832031 0)"/>
      <use xlink:href="#ArialMT-6f" transform="translate(300.048828 0)"/>
      <use xlink:href="#ArialMT-6e" transform="translate(355.664062 0)"/>
     </g>
    </g>
    <g id="line2d_39">
     <path d="M 614.259688 216.744688 
L 625.259688 216.744688 
L 636.259688 216.744688 
" style="fill: none; stroke-dasharray: 5.55,2.4; stroke-dashoffset: 0; stroke: #cccccc; stroke-width: 1.5"/>
    </g>
    <g id="text_39">
     <!-- Recall -->
     <g style="fill: #262626" transform="translate(645.059687 220.594688) scale(0.11 -0.11)">
      <defs>
       <path id="ArialMT-52" d="M 503 0 
L 503 4581 
L 2534 4581 
Q 3147 4581 3465 4457 
Q 3784 4334 3975 4021 
Q 4166 3709 4166 3331 
Q 4166 2844 3850 2509 
Q 3534 2175 2875 2084 
Q 3116 1969 3241 1856 
Q 3506 1613 3744 1247 
L 4541 0 
L 3778 0 
L 3172 953 
Q 2906 1366 2734 1584 
Q 2563 1803 2427 1890 
Q 2291 1978 2150 2013 
Q 2047 2034 1813 2034 
L 1109 2034 
L 1109 0 
L 503 0 
z
M 1109 2559 
L 2413 2559 
Q 2828 2559 3062 2645 
Q 3297 2731 3419 2920 
Q 3541 3109 3541 3331 
Q 3541 3656 3305 3865 
Q 3069 4075 2559 4075 
L 1109 4075 
L 1109 2559 
z
" transform="scale(0.015625)"/>
      </defs>
      <use xlink:href="#ArialMT-52"/>
      <use xlink:href="#ArialMT-65" transform="translate(72.216797 0)"/>
      <use xlink:href="#ArialMT-63" transform="translate(127.832031 0)"/>
      <use xlink:href="#ArialMT-61" transform="translate(177.832031 0)"/>
      <use xlink:href="#ArialMT-6c" transform="translate(233.447266 0)"/>
      <use xlink:href="#ArialMT-6c" transform="translate(255.664062 0)"/>
     </g>
    </g>
   </g>
  </g>
 </g>
 <defs>
  <clipPath id="pe6e21ef4f6">
   <rect x="47.878906" y="29.220937" width="298.8" height="203.46"/>
  </clipPath>
  <clipPath id="pf854160877">
   <rect x="401.398906" y="29.220937" width="298.8" height="203.46"/>
  </clipPath>
 </defs>
</svg>
